<?xml version="1.0" standalone="no"?>
<!DOCTYPE svg PUBLIC "-//W3C//DTD SVG 1.1//EN" "http://www.w3.org/Graphics/SVG/1.1/DTD/svg11.dtd" >
<svg xmlns="http://www.w3.org/2000/svg" xmlns:xlink="http://www.w3.org/1999/xlink" version="1.1">
<metadata>
Created by FontForge 20161003 at Tue Jun 18 08:30:44 2019
 By www-data
Copyright by Christine Mauerkirchner und Rainer Grunert
</metadata>
<defs>
<font id="PlakatDBNormal" horiz-adv-x="838" >
  <font-face 
    font-family="PlakatDB"
    font-weight="400"
    font-stretch="normal"
    units-per-em="2048"
    panose-1="0 0 4 0 0 0 0 0 0 0"
    ascent="1638"
    descent="-410"
    x-height="1135"
    cap-height="1434"
    bbox="-399 -449 1890 1786"
    underline-thickness="80"
    underline-position="-308"
    unicode-range="U+0020-F002"
  />
<missing-glyph horiz-adv-x="1024" 
d="M128 0v1434h768v-1434h-768zM256 128h512v1178h-512v-1178z" />
    <glyph glyph-name=".notdef" horiz-adv-x="1024" 
d="M128 0v1434h768v-1434h-768zM256 128h512v1178h-512v-1178z" />
    <glyph glyph-name=".null" horiz-adv-x="0" 
 />
    <glyph glyph-name="nonmarkingreturn" horiz-adv-x="621" 
 />
    <glyph glyph-name="space" unicode=" " horiz-adv-x="621" 
 />
    <glyph glyph-name="exclam" unicode="!" horiz-adv-x="465" 
d="M408 145q0 -65 -50 -115t-116 -50q-69 -1 -116 47t-48 118t46 118t118 48q69 0 117.5 -48t48.5 -118zM213 397q-75 363 -82 402q-41 230 -41 407q0 248 156 248q157 0 157 -248q0 -175 -45 -407l-88 -402h-57z" />
    <glyph glyph-name="quotedbl" unicode="&#x22;" horiz-adv-x="885" 
d="M141 864q-15 65 -31 130q-20 85 -20 126v234h291v-234q0 -52 -16 -129q-14 -63 -27 -127h-197zM557 864q-15 64 -31 127q-18 77 -18 129v234h287v-234q0 -52 -17 -129q-13 -63 -26 -127h-195z" />
    <glyph glyph-name="numbersign" unicode="#" horiz-adv-x="1249" 
d="M66 940h284l78 352h180l-78 -352h318l76 352h182l-76 -352h154v-182h-189l-57 -273h246v-180h-279l-78 -346h-180l76 346h-322l-71 -346h-183l74 346h-155v180h192l57 273h-249v182zM496 758l-56 -273h318l57 273h-319z" />
    <glyph glyph-name="dollar" unicode="$" 
d="M381 1157q-82 -21 -82 -84q0 -57 82 -125v209zM477 254q83 22 84 106q1 62 -84 138v-244zM41 1067v-2q0 281 340 340v63h96v-63q196 -28 273 -132q69 -95 69 -298h-264q0 141 -78 180v-276q160 -132 231 -224q109 -143 109 -295q0 -301 -340 -358v-125h-96v125
q-344 3 -344 393v60h264l-2 -49q-5 -111 82 -150v324q-181 156 -226 209q-114 134 -114 278z" />
    <glyph glyph-name="percent" unicode="%" horiz-adv-x="1208" 
d="M1167 -12q0 -286 -231 -287q-234 -1 -234 276v203q0 278 240 277q109 -1 170 -75q55 -68 55 -179v-215zM985 209h-2q0 80 -49 80q-47 0 -47 -80v-268q0 -72 51 -72q47 0 47 92v248zM530 1018q0 -319 -241 -318q-232 2 -230 273l2 205q2 144 55 207q58 69 197 69
q110 0 166 -74q51 -66 51 -178v-184zM348 1212h-2q0 78 -49 78q-53 0 -53 -92v-246q0 -84 53 -84q51 0 51 74v270zM975 1440h190l-925 -1725h-195z" />
    <glyph glyph-name="ampersand" unicode="&#x26;" horiz-adv-x="1014" 
d="M600 1155q0 33 -21 60t-53 28q-28 1 -48.5 -21.5t-20.5 -52.5q0 -38 57 -159q86 77 86 145zM377 549q-52 -66 -53 -139q-1 -56 34 -102q39 -50 95 -50q14 0 43 12zM594 37v-2q-103 -55 -195 -55q-170 -2 -268 135q-88 122 -88 301q0 236 215 411q-74 167 -74 281
q0 148 93 247.5t241 100.5q139 1 231.5 -92t92.5 -234q0 -190 -224 -385l80 -188q48 99 62 229l233 -2q0 -285 -162 -510l119 -278h-340z" />
    <glyph glyph-name="quotesingle" unicode="'" horiz-adv-x="442" 
d="M127 864q-15 64 -31 127q-18 77 -18 129v234h289v-234q0 -53 -17 -129q-14 -63 -28 -127h-195z" />
    <glyph glyph-name="parenleft" unicode="(" horiz-adv-x="641" 
d="M461 -295q-387 459 -387 866q0 249 112 475q84 167 279 404h153q-217 -417 -245 -856l-2 2q0 -244 63 -462q53 -181 178 -429h-151z" />
    <glyph glyph-name="parenright" unicode=")" horiz-adv-x="641" 
d="M43 -295l-2 -2q122 246 176 423q70 226 70 452q0 236 -63 452q-54 183 -175 422h152q180 -221 269 -404q114 -234 114 -468q0 -241 -114 -472q-88 -178 -275 -403h-152z" />
    <glyph glyph-name="asterisk" unicode="*" horiz-adv-x="952" 
d="M463 1092q-78 183 -78 256q0 43 29.5 73t72.5 31q107 2 107 -117q0 -63 -80 -250q93 84 119 104q81 60 139 60q42 0 69.5 -31.5t26.5 -74.5q-1 -113 -157 -113q-83 0 -189 10q124 -73 149 -93q93 -70 93 -134q0 -42 -32 -72t-75 -30q-74 0 -121 118q-19 47 -49 181
q-28 -133 -47 -182q-47 -117 -121 -117q-47 0 -76.5 31t-29.5 77q0 91 236 219q-115 -8 -175 -8q-165 0 -165 113q0 44 27 75t71 31q64 0 138 -59z" />
    <glyph glyph-name="plus" unicode="+" horiz-adv-x="1247" 
d="M109 725h413v414h203v-414h416v-205h-416v-414h-203v414h-413v205z" />
    <glyph glyph-name="comma" unicode="," horiz-adv-x="465" 
d="M76 -199v2q95 69 98 197q-96 63 -96 154q0 68 46 112.5t116 44.5q83 0 129 -69q41 -60 41 -148q0 -232 -310 -334z" />
    <glyph glyph-name="hyphen" unicode="-" horiz-adv-x="641" 
d="M53 696h547v-260h-547v260z" />
    <glyph glyph-name="period" unicode="." horiz-adv-x="465" 
d="M406 145q0 -70 -47.5 -116.5t-116.5 -46.5q-68 0 -116 48t-48 115q0 68 47 117t115 49q69 0 117.5 -48t48.5 -118z" />
    <glyph glyph-name="slash" unicode="/" horiz-adv-x="641" 
d="M424 1456h176l-377 -1773h-176z" />
    <glyph glyph-name="zero" unicode="0" 
d="M502 1096q0 92 -74 92q-68 0 -68 -94v-766q0 -82 78 -80q64 1 64 94v754zM59 1018q0 434 371 434q374 0 373 -438l-2 -619q0 -190 -86 -297q-93 -116 -279 -116q-178 0 -277.5 98t-99.5 276v662z" />
    <glyph glyph-name="one" unicode="1" 
d="M158 1350l434 104v-1458h-297v1112l-137 -33v275z" />
    <glyph glyph-name="two" unicode="2" 
d="M500 283h280v-287h-725q125 251 249 502q198 423 198 575q0 113 -70 113q-74 0 -74 -138q0 -19 4 -87h-296l2 124q2 170 101.5 269.5t266.5 99.5t266 -103.5t99 -271.5q0 -151 -112 -406q-95 -195 -189 -390z" />
    <glyph glyph-name="three" unicode="3" 
d="M795 1012q0 -190 -166 -248q166 -37 166 -260v-162q0 -160 -104 -261t-265 -101q-156 0 -259 83q-112 90 -112 242v217h301q-6 -116 -6 -119q0 -155 72 -155t72 92v188q0 71 -61 95q-36 14 -120 14v246q112 0 143 24q39 29 40 137q1 142 -72 142q-74 0 -74 -134
q0 -17 4 -85h-299l-2 114q-3 178 104 277q103 96 283 96q208 0 290 -126q65 -100 65 -316z" />
    <glyph glyph-name="four" unicode="4" 
d="M428 985l-205 -477h205v477zM424 1452h305v-944h88v-246h-88v-266h-301v266h-399l-2 260q-1 22 397 930z" />
    <glyph glyph-name="five" unicode="5" 
d="M76 1434h690v-263h-426v-206q78 65 176 65q124 0 204 -97q75 -91 75 -216l-2 -365q-1 -169 -101.5 -270.5t-267.5 -101.5q-147 -1 -255 90q-114 96 -114 241v219h299q0 -21 -3 -64.5t-3 -66.5q0 -149 78 -149q72 0 72 92v326q0 31 -21.5 55.5t-52.5 24.5q-58 0 -70 -76
h-286z" />
    <glyph glyph-name="six" unicode="6" 
d="M498 606q0 93 -66 94q-74 2 -74 -114v-254q0 -82 68 -80q31 1 51.5 26t20.5 56v272zM795 1067h-295q5 121 -68 121q-74 0 -74 -101v-188q71 68 166 68q130 0 204 -96q67 -87 67 -222v-289q0 -175 -99 -277.5t-274 -102.5q-361 0 -361 415v576q0 482 365 483
q180 0 276 -104q93 -101 93 -283z" />
    <glyph glyph-name="seven" unicode="7" 
d="M49 1434l766 2v-174l-412 -1266h-299l381 1165h-436v273z" />
    <glyph glyph-name="eight" unicode="8" 
d="M496 555q0 78 -78 78q-60 0 -60 -78v-236q0 -77 72 -77q66 0 66 75v238zM492 1120q0 70 -72 70q-62 0 -62 -74v-145q0 -72 68 -72q66 0 66 80v141zM55 406h-2q0 311 180 368q-104 39 -144 112q-33 62 -34 181q-1 183 92.5 284.5t274.5 102.5q373 2 373 -395
q0 -212 -170 -285q113 -54 150 -158q24 -68 24 -221q0 -187 -80 -293q-90 -120 -270 -120q-214 0 -307 107q-87 100 -87 317z" />
    <glyph glyph-name="nine" unicode="9" 
d="M61 365l295 2q-4 -120 72 -121q68 -1 68 90v199q-72 -66 -158 -66q-140 0 -213 102q-64 90 -64 236v283q0 165 101 264.5t268 99.5q369 0 369 -444v-504q0 -244 -66 -364q-88 -160 -313 -160q-174 0 -268 106q-91 101 -91 277zM502 1094q0 95 -70 94q-74 -2 -74 -94v-263
q0 -92 66 -92q78 0 78 103v252z" />
    <glyph glyph-name="colon" unicode=":" horiz-adv-x="465" 
d="M403 145q0 -65 -49.5 -115t-115.5 -50q-69 -1 -115.5 47t-46.5 118t46.5 118t115.5 48t117 -48t48 -118zM408 700v2q0 -67 -49 -116t-115 -49q-68 0 -116 48t-48 115q0 68 47 117t115 49q69 0 117.5 -48t48.5 -118z" />
    <glyph glyph-name="semicolon" unicode=";" horiz-adv-x="465" 
d="M78 -197q90 63 96 195q-93 54 -92 145q1 73 40 121q43 51 114 51q84 0 133 -64q45 -59 45 -147q-1 -126 -97 -222q-85 -86 -215 -120zM416 700h-2q0 -66 -49.5 -114.5t-116.5 -48.5q-66 0 -114.5 48.5t-47.5 114.5q1 70 48 118t116 48t117.5 -48t48.5 -118z" />
    <glyph glyph-name="less" unicode="&#x3c;" horiz-adv-x="1247" 
d="M1139 100l-1028 430v183l1028 430v-221l-746 -299l746 -299v-224z" />
    <glyph glyph-name="equal" unicode="=" horiz-adv-x="1247" 
d="M111 946h1028v-205h-1028v205zM111 506h1028v-205h-1028v205z" />
    <glyph glyph-name="greater" unicode="&#x3e;" horiz-adv-x="1247" 
d="M111 1143l1028 -428v-185l-1028 -430v224l745 299l-745 299v221z" />
    <glyph glyph-name="question" unicode="?" horiz-adv-x="641" 
d="M43 1405q104 49 225 49q152 0 245 -83q97 -86 97 -234q0 -117 -86 -267q-78 -119 -155 -239q-28 -45 -76 -234h-60q-42 123 -43 226q0 95 58.5 246.5t58.5 203.5t-36 84.5t-89 32.5q-62 0 -139 -51v266zM426 145q0 -69 -47.5 -117t-116.5 -48q-66 -1 -115.5 48.5
t-50.5 116.5q-1 69 48 117t118 47q71 -1 117.5 -47.5t46.5 -116.5z" />
    <glyph glyph-name="at" unicode="@" horiz-adv-x="1827" 
d="M893 1001l-2 -2q161 0 242 -116l20 94h250q-43 -186 -85 -371q-50 -224 -67 -375l31 -36q145 42 235 186q85 135 85 293q0 251 -187 395q-170 131 -428 131q-346 0 -555 -211.5t-209 -558.5q0 -322 231 -496q206 -155 539 -155q432 0 629 241h203q-104 -216 -340 -324
q-204 -93 -471 -93q-427 0 -684 202q-283 223 -283 639q0 414 266 674q263 258 678 258q336 0 554 -186q231 -197 231 -528q0 -261 -173 -459q-180 -207 -438 -207q-144 0 -170 102q-105 -102 -243 -102q-166 0 -266 118q-93 111 -93 281q0 227 134 408q147 198 366 198z
M635 381v2q0 -86 36 -145q42 -70 122 -70q133 -1 216 163q68 135 68 283q0 85 -40 144q-45 67 -126 67q-136 0 -214 -162q-62 -129 -62 -282z" />
    <glyph glyph-name="A" unicode="A" horiz-adv-x="915" 
d="M475 1149l-74 -748h140zM319 1434h314l274 -1438h-329l-19 188h-178l-14 -188h-334z" />
    <glyph glyph-name="B" unicode="B" horiz-adv-x="915" 
d="M397 903h54q100 0 98 137q-2 125 -98 125h-54v-262zM393 627v-353h53q107 0 105 183q-2 170 -109 170h-49zM66 -4v1438h458q185 0 269 -89q81 -86 81 -272q0 -130 -25 -186q-34 -76 -140 -121q104 -39 141 -108q31 -57 31 -177q0 -241 -37 -331q-62 -154 -266 -154h-512z
" />
    <glyph glyph-name="C" unicode="C" horiz-adv-x="915" 
d="M59 967q0 219 105 347q115 140 330 140q395 0 395 -524l-332 2q0 17 2 52t2 52q0 128 -78 127q-58 0 -77 -46q-11 -27 -11 -95v-645q0 -114 78 -115q85 -1 85 173q0 23 -5 100h332v-103q0 -202 -104 -324q-111 -128 -310 -128q-210 0 -316 133q-96 120 -96 336v518z" />
    <glyph glyph-name="D" unicode="D" horiz-adv-x="915" 
d="M393 1143v-848h47q69 0 93 62q14 37 14 120l-2 541q0 125 -94 125h-58zM57 1434h496q157 0 245 -101q85 -95 85 -254v-657q0 -424 -371 -424h-455v1436z" />
    <glyph glyph-name="E" unicode="E" horiz-adv-x="739" 
d="M63 1434h654v-291h-318v-258h303v-291h-303v-299h322v-299h-658v1438z" />
    <glyph glyph-name="F" unicode="F" horiz-adv-x="641" 
d="M57 1434h572v-291h-236v-258h217v-291h-217v-598h-336v1438z" />
    <glyph glyph-name="G" unicode="G" horiz-adv-x="915" 
d="M885 932h-334l4 106q2 52 -13 84q-20 42 -67 41q-80 -1 -80 -92l-2 -692q0 -111 82 -111q74 0 74 97v161h-90v291h426v-385q0 -204 -104 -324q-111 -128 -312 -128q-194 0 -306 128q-106 121 -106 318v561q0 209 110 335q117 132 322 132q396 0 396 -522z" />
    <glyph glyph-name="H" unicode="H" horiz-adv-x="915" 
d="M57 1434h336v-519h158v519h336v-1438h-336v616h-158v-616h-336v1438z" />
    <glyph glyph-name="I" unicode="I" horiz-adv-x="465" 
d="M80 1434h332v-1438h-332v1438z" />
    <glyph glyph-name="J" unicode="J" horiz-adv-x="465" 
d="M90 1434h336l2 -1461q0 -173 -119 -236q-76 -41 -274 -52v335q55 -5 55 62v1352z" />
    <glyph glyph-name="K" unicode="K" horiz-adv-x="915" 
d="M57 1434h338v-646l164 646h324l-213 -654l239 -784h-338l-176 723v-723h-338v1438z" />
    <glyph glyph-name="L" unicode="L" horiz-adv-x="641" 
d="M57 1434h336v-1139h236v-299h-572v1438z" />
    <glyph glyph-name="M" unicode="M" horiz-adv-x="1110" 
d="M178 1434h228l161 -588l164 588h225l136 -1438h-322l-16 811l-160 -647h-62l-159 645l-17 -809h-323z" />
    <glyph glyph-name="N" unicode="N" horiz-adv-x="915" 
d="M57 1434h234l311 -795l-27 795h310v-1438h-226l-321 815l29 -815h-310v1438z" />
    <glyph glyph-name="O" unicode="O" horiz-adv-x="915" 
d="M549 1053h-2q0 112 -70 112q-84 0 -84 -129v-659q0 -112 78 -113t78 117v672zM55 877q0 266 75 400q99 177 345 177q212 0 316 -143q92 -126 92 -346v-426q0 -563 -410 -564q-418 0 -418 512v390z" />
    <glyph glyph-name="P" unicode="P" horiz-adv-x="915" 
d="M401 676h60q95 0 94 117l-2 254q0 37 -24.5 66.5t-59.5 29.5h-68v-467zM66 1434h452q175 0 273 -100.5t98 -276.5v-236q0 -280 -113 -366q-93 -70 -381 -70v-389h-329v1438z" />
    <glyph glyph-name="Q" unicode="Q" horiz-adv-x="915" 
d="M555 1055q0 110 -72 110q-80 0 -80 -133v-659q0 -56 11 -77q16 -34 65 -34q76 0 76 117v676zM893 567h-2q0 -193 -26 -291q-40 -148 -158 -239q64 -56 110 -57q2 -1 64 24l34 -27l-172 -260q-129 18 -207 82q-69 57 -130 181q-192 37 -272 178q-66 116 -66 327v414
q0 255 79 387q100 168 338 168q408 0 408 -512v-375z" />
    <glyph glyph-name="R" unicode="R" horiz-adv-x="915" 
d="M395 1159v-289h51q105 0 105 142q0 147 -117 147h-39zM395 598v-602h-338v1438h486q340 0 340 -390q0 -262 -181 -311q181 -56 181 -256v-481h-336v461q0 85 -33 113t-119 28z" />
    <glyph glyph-name="S" unicode="S" 
d="M801 1010h-301l2 53q4 102 -58 102q-54 0 -55 -92q-1 -70 108 -167q172 -152 203 -190q109 -132 109 -288q0 -448 -401 -448q-207 0 -291 136q-66 107 -66 326h309l-4 -77q-5 -97 62 -97q61 0 61 109q0 103 -108 206q-101 95 -201 189q-109 131 -109 299
q0 176 99.5 279.5t275.5 103.5q163 0 266.5 -96t100.5 -256z" />
    <glyph glyph-name="T" unicode="T" horiz-adv-x="739" 
d="M41 1434h678v-297h-172v-1141h-336v1141h-170v297z" />
    <glyph glyph-name="U" unicode="U" horiz-adv-x="915" 
d="M59 1434h336v-1057q0 -109 72 -109q82 0 82 113v1053h336v-1022q0 -207 -108.5 -319.5t-315.5 -112.5q-187 0 -294.5 104t-107.5 291v1059z" />
    <glyph glyph-name="V" unicode="V" horiz-adv-x="915" 
d="M27 1434h348l96 -1053l96 1053h348l-288 -1454h-314z" />
    <glyph glyph-name="W" unicode="W" horiz-adv-x="1288" 
d="M27 1434h333l68 -877l117 877h219l121 -871l63 871h334l-240 -1454h-286l-99 841l-98 -841h-289z" />
    <glyph glyph-name="X" unicode="X" 
d="M33 1434h315l82 -486l80 486h313q-174 -672 -174 -699q0 -9 176 -739h-321l-70 459l-74 -459h-323q176 704 176 741q0 27 -180 697z" />
    <glyph glyph-name="Y" unicode="Y" 
d="M43 1434h319l72 -609l74 609l317 2q-63 -203 -125 -405q-77 -247 -102 -406q-13 -85 -13 -204q0 -72 6.5 -216t6.5 -209h-330q0 65 6.5 209t6.5 216q0 119 -13 204q-24 159 -100 405q-62 202 -125 404z" />
    <glyph glyph-name="Z" unicode="Z" horiz-adv-x="641" 
d="M41 1434h584l-211 -1139h209v-299h-596l211 1147h-197v291z" />
    <glyph glyph-name="bracketleft" unicode="[" horiz-adv-x="641" 
d="M57 1432h570v-205h-269v-1295h265v-204h-566v1704z" />
    <glyph glyph-name="backslash" unicode="\" horiz-adv-x="659" 
d="M23 1405h190l403 -1737h-188z" />
    <glyph glyph-name="bracketright" unicode="]" horiz-adv-x="641" 
d="M31 1432h569v-1704h-573v204h268v1289h-264v211z" />
    <glyph glyph-name="asciicircum" unicode="^" horiz-adv-x="1092" 
d="M98 633l348 743h209l340 -743h-268l-180 444l-178 -444h-271z" />
    <glyph glyph-name="underscore" unicode="_" horiz-adv-x="934" 
d="M-23 -162h984v-213h-984v213z" />
    <glyph glyph-name="grave" unicode="`" horiz-adv-x="621" 
d="M336 1448l145 -217h-123q-10 0 -179.5 96.5t-174.5 106.5q14 14 23 14h309z" />
    <glyph glyph-name="a" unicode="a" 
d="M362 399q0 -110 70 -110q23 0 66 47l2 475q-37 37 -72 37q-68 0 -68 -96zM66 786q0 137 50 237q64 128 187 128q124 0 197 -195v181h297v-1139h-297v195q-74 -208 -209 -209q-120 -1 -180 119q-45 94 -45 229v454z" />
    <glyph glyph-name="b" unicode="b" 
d="M502 743q0 101 -68 101q-39 0 -67 -45l2 -486q29 -32 61 -32q72 0 72 96v366zM70 1434h301v-480q79 193 217 193q109 0 166 -119q45 -92 45 -215v-461q0 -136 -47 -237q-62 -131 -183 -131q-127 -1 -202 192v-180h-297v1438z" />
    <glyph glyph-name="c" unicode="c" 
d="M784 672h-278q0 17 2 52t2 52q0 139 -70 139q-69 0 -69 -108v-502q0 -90 67 -90q69 0 69 136q0 24 -2.5 62t-2.5 46h282l2 -127q3 -168 -92 -260t-264 -92q-165 -1 -263 113q-93 109 -93 278v344q0 190 83 306q95 132 277 132q153 0 250 -88q100 -91 100 -242v-151z" />
    <glyph glyph-name="d" unicode="d" 
d="M360 385q0 -101 72 -102q28 -1 64 26v496q-30 37 -68 37q-68 0 -68 -105v-352zM496 1434h297v-1438h-297l2 172q-73 -180 -209 -180q-117 0 -177 120q-49 94 -49 224v438q0 143 42 240q57 135 180 135q141 0 211 -195v484z" />
    <glyph glyph-name="e" unicode="e" 
d="M360 711h138v127q0 93 -64 94q-74 1 -74 -109v-112zM795 510h-437v-197q0 -110 70 -110q56 0 69 78q4 27 1 120h297v-51q0 -168 -99.5 -269t-269.5 -101q-365 0 -365 456v232q0 485 371 485q178 0 274 -116q89 -108 89 -289v-238z" />
    <glyph glyph-name="f" unicode="f" horiz-adv-x="465" 
d="M317 1454l2 2q22 0 130 -10v-180q-95 0 -93 -88l2 -82h91v-213l-64 2v-889h-297v889h-53v211h53v100q0 140 43 194q49 64 186 64z" />
    <glyph glyph-name="g" unicode="g" 
d="M360 401q0 -98 66 -98q33 0 68 35l2 459q-37 32 -68 32q-70 0 -70 -110zM63 784q0 139 46 233q59 124 182 124q78 0 131 -59q34 -39 74 -130v181h297v-1035q0 -424 -392 -424q-155 0 -309 37v244q148 -29 221 -29q106 0 144 49q32 42 32 150q-86 -86 -186 -86
q-240 0 -240 334v411z" />
    <glyph glyph-name="h" unicode="h" 
d="M74 1434h297v-441q82 162 204 162q109 0 171 -93q55 -80 55 -194v-872h-297l-2 809q0 82 -56 82q-21 0 -48 -26t-27 -46v-819h-297v1438z" />
    <glyph glyph-name="i" unicode="i" horiz-adv-x="465" 
d="M80 1331q0 121 178 123q62 1 106 -32q48 -35 48 -95q-1 -60 -58 -93q-47 -28 -112 -28q-162 0 -162 125zM98 1135h297v-1139h-297v1139z" />
    <glyph glyph-name="j" unicode="j" horiz-adv-x="465" 
d="M102 1331v2q0 119 172 119q66 0 111 -29q51 -34 51 -96t-57 -95q-47 -27 -115 -28q-67 -1 -111 29q-51 34 -51 98zM121 1137h297l-2 -1092q0 -337 -334 -373l-53 242q59 8 78 43q14 25 14 90v1090z" />
    <glyph glyph-name="k" unicode="k" 
d="M72 1434h297v-824l157 525h293l-188 -533l196 -606h-307l-151 561v-561h-297v1438z" />
    <glyph glyph-name="l" unicode="l" horiz-adv-x="465" 
d="M94 1434h297v-1438h-297v1438z" />
    <glyph glyph-name="m" unicode="m" horiz-adv-x="1288" 
d="M373 958q77 186 209 187q169 1 209 -199q43 103 82 142q56 56 151 57q105 1 162 -94q49 -79 49 -191v-864h-295v807q0 77 -63 76q-21 -1 -46.5 -31t-25.5 -49v-803h-295v799q0 31 -17 57.5t-47 26.5q-22 -1 -47.5 -30t-25.5 -50v-803h-297v1139h297v-177z" />
    <glyph glyph-name="n" unicode="n" 
d="M365 985l-3 -2q73 160 211 160q222 0 222 -309v-838h-297v795q0 91 -56 90q-24 -1 -50.5 -28.5t-26.5 -49.5v-807h-297v1139h297v-150z" />
    <glyph glyph-name="o" unicode="o" 
d="M498 846q0 73 -68 72q-63 -2 -63 -78v-539q0 -83 65 -84q66 -1 66 90v539zM70 727q0 186 86 300q95 126 276 126q177 0 273 -115q91 -107 90 -286l-2 -361q-1 -164 -89 -281q-97 -128 -255 -128q-185 0 -284 113q-95 107 -95 294v338z" />
    <glyph glyph-name="p" unicode="p" 
d="M502 766q0 82 -62 82q-32 0 -69 -33v-481q33 -38 63 -37q68 2 68 119v350zM371 963h-2q79 180 202 180q121 0 181 -116q47 -90 47 -224v-424q0 -142 -40 -243q-56 -141 -175 -140q-149 1 -213 194v-491h-293v1436h293v-172z" />
    <glyph glyph-name="q" unicode="q" 
d="M496 821q-31 27 -58 27q-73 0 -73 -125v-317q0 -111 73 -109q58 1 58 49v475zM72 748h-2q0 152 42 253q58 141 189 140q130 -1 201 -191v185h291v-1436h-297v487q-62 -190 -207 -190q-115 0 -173 119q-44 93 -44 221v412z" />
    <glyph glyph-name="r" unicode="r" horiz-adv-x="543" 
d="M352 -4h-295v1139h265v-209q18 96 32 133q32 85 86 86q33 0 84 -39v-328q-52 31 -82 31q-90 0 -90 -139v-674z" />
    <glyph glyph-name="s" unicode="s" horiz-adv-x="739" 
d="M711 768h-273v68q0 98 -61 98q-39 0 -49 -42q-4 -16 -4 -73q-1 -98 100 -136q177 -67 187 -75q102 -72 102 -254q0 -374 -334 -374q-192 0 -266 109q-59 88 -58 290h271l-4 -82q-5 -92 57 -92q57 0 57 108q0 100 -100 141q-175 71 -187 80q-102 77 -102 263
q0 356 342 356q183 0 258 -107q64 -90 64 -278z" />
    <glyph glyph-name="t" unicode="t" horiz-adv-x="465" 
d="M98 1354h297v-258h60v-211h-60v-889h-297v889h-61v211h61v258z" />
    <glyph glyph-name="u" unicode="u" 
d="M365 1135v-820q0 -102 67 -102q68 0 68 102v820h297v-824q0 -157 -106 -247q-99 -84 -259 -84q-166 0 -262 81q-102 87 -102 250v824h297z" />
    <glyph glyph-name="v" unicode="v" horiz-adv-x="739" 
d="M377 307l65 828h283l-236 -1155h-223l-237 1155h284z" />
    <glyph glyph-name="w" unicode="w" horiz-adv-x="1208" 
d="M41 1135h293l94 -766l86 766h209l80 -766l98 766h295l-283 -1155h-217l-80 616l-84 -616h-219z" />
    <glyph glyph-name="x" unicode="x" 
d="M37 1135h301l92 -379l96 379h299l-215 -557l213 -582h-305l-88 389l-86 -389h-307l217 577z" />
    <glyph glyph-name="y" unicode="y" horiz-adv-x="739" 
d="M729 1137l-242 -1155q-33 -159 -64 -210q-57 -91 -187 -91q-46 0 -152 26v266q81 -28 111 -28q23 0 52.5 19.5t24.5 41.5l-235 1131h278l70 -828l66 828h278z" />
    <glyph glyph-name="z" unicode="z" horiz-adv-x="543" 
d="M43 1135h496l-170 -904h163v-235h-501l170 909h-158v230z" />
    <glyph glyph-name="braceleft" unicode="{" horiz-adv-x="725" 
d="M53 463l-2 229q120 0 166 78q34 57 34 177q0 24 -1.5 71.5t-1.5 68.5q0 226 107 307q93 70 333 70v-227h-39q-97 0 -130 -58q-24 -41 -24 -144v0q0 -176 -13 -235q-31 -141 -150 -222q135 -81 154 -262l14 -276q27 -127 188 -122v-227h-51q-265 0 -338 137
q-45 84 -45 369q0 127 -36 186q-46 76 -165 80z" />
    <glyph glyph-name="bar" unicode="|" horiz-adv-x="1143" 
d="M455 1399h235v-1575h-235v1575z" />
    <glyph glyph-name="braceright" unicode="}" horiz-adv-x="725" 
d="M674 463q-120 0 -166 -78q-34 -57 -34 -177q0 -24 1.5 -71.5t1.5 -68.5q0 -226 -106 -307q-92 -70 -332 -70v227h47q123 0 142 131q6 138 13 277q23 176 152 252q-117 76 -150 225q-16 74 -16 280q0 109 -42 136q-31 20 -146 18v227l67 -2q255 -7 325 -141
q41 -81 40 -352q-1 -130 35 -192q46 -80 168 -87v-227z" />
    <glyph glyph-name="asciitilde" unicode="~" horiz-adv-x="1227" 
d="M1126 831v-215q-158 -131 -292 -131q-85 0 -231.5 75t-219.5 75q-131 0 -281 -141l-2 217q154 128 303 129q84 0 230 -74t221 -74q120 0 272 139z" />
    <glyph glyph-name="Adieresis" unicode="&#xc4;" horiz-adv-x="915" 
d="M475 1149l-74 -748h140zM319 1434h314l274 -1438h-329l-19 188h-178l-14 -188h-334zM383 1729v0q59 -24 59 -101q0 -52 -36.5 -84t-90.5 -33q-51 0 -85.5 32t-34.5 85t41 85q38 30 94 30q30 0 53 -14zM739 1628h2q0 -115 -125 -115q-52 0 -88 32t-36 83q0 48 37.5 81.5
t84.5 33.5q54 0 89.5 -31t35.5 -84z" />
    <glyph glyph-name="Aring" unicode="&#xc5;" horiz-adv-x="915" 
d="M475 1149l-74 -748h140zM319 1434h314l274 -1438h-329l-19 188h-178l-14 -188h-334zM645 1638l-2 2q0 -71 -55 -111q-50 -36 -123 -36q-69 0 -116 35q-52 39 -52 106q0 70 52 112q49 40 120 40q72 0 121 -37q55 -41 55 -111zM369 1640q0 -69 98 -67q99 2 98 67
q-1 70 -96 72q-100 2 -100 -72z" />
    <glyph glyph-name="Ccedilla" unicode="&#xc7;" horiz-adv-x="915" 
d="M59 967q0 219 105 347q115 140 330 140q395 0 395 -524l-332 2q0 17 2 52t2 52q0 128 -78 127q-58 0 -77 -46q-11 -27 -11 -95v-645q0 -114 78 -115q85 -1 85 173q0 23 -5 100h332v-103q0 -202 -104 -324q-111 -128 -310 -128q-210 0 -316 133q-96 120 -96 336v518z
M414 18q250 0 250 -139q0 -72 -73 -110q-58 -31 -136 -31q-64 0 -191 29v90q38 -13 60 -11q79 0 79 58q0 34 -49 61z" />
    <glyph glyph-name="Eacute" unicode="&#xc9;" horiz-adv-x="739" 
d="M63 1434h654v-291h-318v-258h303v-291h-303v-299h322v-299h-658v1438zM362 1737h310q18 0 18 -17q-10 -19 -170 -109.5t-178 -90.5h-125z" />
    <glyph glyph-name="Ntilde" unicode="&#xd1;" horiz-adv-x="915" 
d="M57 1434h234l311 -795l-27 795h310v-1438h-226l-321 815l29 -815h-310v1438zM197 1493q0 92 41 157q48 76 135 76q41 0 111 -28.5t91 -28.5q39 1 39 60h125q0 -94 -39 -158q-46 -77 -133 -78q-41 0 -111 28.5t-94 28.5q-43 0 -43 -57h-122z" />
    <glyph glyph-name="Odieresis" unicode="&#xd6;" horiz-adv-x="915" 
d="M549 1053h-2q0 112 -70 112q-84 0 -84 -129v-659q0 -112 78 -113t78 117v672zM55 877q0 266 75 400q99 177 345 177q212 0 316 -143q92 -126 92 -346v-426q0 -563 -410 -564q-418 0 -418 512v390zM381 1729v0q59 -24 59 -101q0 -52 -36.5 -84t-90.5 -33q-51 0 -85.5 32
t-34.5 85t41 85q38 30 94 30q30 0 53 -14zM737 1628h2q0 -115 -125 -115q-52 0 -87 32q-38 32 -38 83q0 48 38 81.5t85 33.5q54 0 89.5 -31t35.5 -84z" />
    <glyph glyph-name="Udieresis" unicode="&#xdc;" horiz-adv-x="915" 
d="M59 1434h336v-1057q0 -109 72 -109q82 0 82 113v1053h336v-1022q0 -207 -108.5 -319.5t-315.5 -112.5q-187 0 -294.5 104t-107.5 291v1059zM383 1729v0q59 -24 59 -101q0 -52 -36.5 -84t-90.5 -33q-51 0 -85.5 32t-34.5 85t41 85q38 30 94 30q30 0 53 -14zM739 1628h2
q0 -115 -125 -115q-52 0 -88 32t-36 83q0 48 37.5 81.5t84.5 33.5q54 0 89.5 -31t35.5 -84z" />
    <glyph glyph-name="aacute" unicode="&#xe1;" 
d="M362 399q0 -110 70 -110q23 0 66 47l2 475q-37 37 -72 37q-68 0 -68 -96zM66 786q0 137 50 237q64 128 187 128q124 0 197 -195v181h297v-1139h-297v195q-74 -208 -209 -209q-120 -1 -180 119q-45 94 -45 229v454zM414 1450h307q17 0 20 -16q-10 -19 -170 -110t-178 -91
h-125z" />
    <glyph glyph-name="agrave" unicode="&#xe0;" 
d="M362 399q0 -110 70 -110q23 0 66 47l2 475q-37 37 -72 37q-68 0 -68 -96zM66 786q0 137 50 237q64 128 187 128q124 0 197 -195v181h297v-1139h-297v195q-74 -208 -209 -209q-120 -1 -180 119q-45 94 -45 229v454zM444 1450l148 -217h-125q-11 0 -180 97t-172 106
q14 14 20 14h309z" />
    <glyph glyph-name="acircumflex" unicode="&#xe2;" 
d="M362 399q0 -110 70 -110q23 0 66 47l2 475q-37 37 -72 37q-68 0 -68 -96zM66 786q0 137 50 237q64 128 187 128q124 0 197 -195v181h297v-1139h-297v195q-74 -208 -209 -209q-120 -1 -180 119q-45 94 -45 229v454zM276 1450h308l121 -217h-117l-158 115l-160 -115h-116z
" />
    <glyph glyph-name="adieresis" unicode="&#xe4;" 
d="M362 399q0 -110 70 -110q23 0 66 47l2 475q-37 37 -72 37q-68 0 -68 -96zM66 786q0 137 50 237q64 128 187 128q124 0 197 -195v181h297v-1139h-297v195q-74 -208 -209 -209q-120 -1 -180 119q-45 94 -45 229v454zM346 1442v-2q60 -23 60 -101q0 -52 -36.5 -83t-90.5 -31
q-52 0 -86.5 31.5t-34.5 82.5q0 53 41 85q38 30 94 30q29 0 53 -12zM702 1339q0 -114 -122 -114q-53 0 -89 31.5t-36 82.5q0 48 37.5 82t85.5 35q53 1 88.5 -31t35.5 -86z" />
    <glyph glyph-name="atilde" unicode="&#xe3;" 
d="M362 399q0 -110 70 -110q23 0 66 47l2 475q-37 37 -72 37q-68 0 -68 -96zM66 786q0 137 50 237q64 128 187 128q124 0 197 -195v181h297v-1139h-297v195q-74 -208 -209 -209q-120 -1 -180 119q-45 94 -45 229v454zM158 1204q0 93 41 158q49 77 137 78q41 0 111 -30
t90 -30q36 0 41 60h124q0 -94 -39 -158q-47 -77 -135 -78q-41 0 -111 29.5t-93 30.5q-24 0 -33.5 -17.5t-7.5 -42.5h-125z" />
    <glyph glyph-name="aring" unicode="&#xe5;" 
d="M362 399q0 -110 70 -110q23 0 66 47l2 475q-37 37 -72 37q-68 0 -68 -96zM66 786q0 137 50 237q64 128 187 128q124 0 197 -195v181h297v-1139h-297v195q-74 -208 -209 -209q-120 -1 -180 119q-45 94 -45 229v454zM606 1352q0 -71 -55 -112q-49 -36 -123 -36
q-69 0 -117 36q-52 39 -53 106q-1 69 52 112q49 40 120 41t121 -36q55 -42 55 -111zM332 1352q0 -70 100 -70t98 70q-1 69 -98 69q-100 0 -100 -69z" />
    <glyph glyph-name="ccedilla" unicode="&#xe7;" 
d="M784 672h-278q0 17 2 52t2 52q0 139 -70 139q-69 0 -69 -108v-502q0 -90 67 -90q69 0 69 136q0 24 -2.5 62t-2.5 46h282l2 -127q3 -168 -92 -260t-264 -92q-165 -1 -263 113q-93 109 -93 278v344q0 190 83 306q95 132 277 132q153 0 250 -88q100 -91 100 -242v-151z
M375 20h-2q250 0 252 -139q0 -72 -72 -110q-59 -31 -139 -31q-66 0 -189 29v90q38 -13 60 -11q80 0 80 58q0 34 -50 61z" />
    <glyph glyph-name="eacute" unicode="&#xe9;" 
d="M360 711h138v127q0 93 -64 94q-74 1 -74 -109v-112zM795 510h-437v-197q0 -110 70 -110q56 0 69 78q4 27 1 120h297v-51q0 -168 -99.5 -269t-269.5 -101q-365 0 -365 456v232q0 485 371 485q178 0 274 -116q89 -108 89 -289v-238zM412 1448h307q17 0 20 -16
q-10 -19 -170 -110t-178 -91h-125z" />
    <glyph glyph-name="egrave" unicode="&#xe8;" 
d="M360 711h138v127q0 93 -64 94q-74 1 -74 -109v-112zM795 510h-437v-197q0 -110 70 -110q56 0 69 78q4 27 1 120h297v-51q0 -168 -99.5 -269t-269.5 -101q-365 0 -365 456v232q0 485 371 485q178 0 274 -116q89 -108 89 -289v-238zM442 1448l148 -217h-125q-11 0 -180 97
t-172 106q14 14 20 14h309z" />
    <glyph glyph-name="ecircumflex" unicode="&#xea;" 
d="M360 711h138v127q0 93 -64 94q-74 1 -74 -109v-112zM795 510h-437v-197q0 -110 70 -110q56 0 69 78q4 27 1 120h297v-51q0 -168 -99.5 -269t-269.5 -101q-365 0 -365 456v232q0 485 371 485q178 0 274 -116q89 -108 89 -289v-238zM274 1448h308l120 -217h-116l-158 115
l-160 -115h-116z" />
    <glyph glyph-name="edieresis" unicode="&#xeb;" 
d="M360 711h138v127q0 93 -64 94q-74 1 -74 -109v-112zM795 510h-437v-197q0 -110 70 -110q56 0 69 78q4 27 1 120h297v-51q0 -168 -99.5 -269t-269.5 -101q-365 0 -365 456v232q0 485 371 485q178 0 274 -116q89 -108 89 -289v-238zM344 1440v-2q59 -23 59 -101
q0 -52 -36.5 -83t-90.5 -31q-51 0 -85.5 31.5t-34.5 82.5q0 53 41 85q38 30 94 30q28 0 53 -12zM700 1337q0 -114 -122 -114q-53 0 -89 31.5t-36 82.5q0 48 37.5 82t84.5 35q54 1 89.5 -31t35.5 -86z" />
    <glyph glyph-name="iacute" unicode="&#xed;" horiz-adv-x="465" 
d="M98 1135h297v-1139h-297v1139zM227 1448h310q18 0 18 -16q-10 -19 -170 -110t-178 -91h-125z" />
    <glyph glyph-name="igrave" unicode="&#xec;" horiz-adv-x="465" 
d="M98 1135h297v-1139h-297v1139zM260 1448l146 -217h-125q-12 0 -181 97t-172 106q15 14 21 14h311z" />
    <glyph glyph-name="icircumflex" unicode="&#xee;" horiz-adv-x="465" 
d="M98 1135h297v-1139h-297v1139zM90 1448h309l119 -217h-117l-157 115l-160 -115h-117z" />
    <glyph glyph-name="idieresis" unicode="&#xef;" horiz-adv-x="465" 
d="M98 1135h297v-1139h-297v1139zM160 1440v-2q59 -23 59 -101q0 -52 -36.5 -83t-90.5 -31q-52 0 -86.5 31.5t-34.5 82.5q0 53 42 85q38 30 93 30q29 0 54 -12zM516 1337q0 -114 -123 -114q-52 0 -88.5 31.5t-36.5 82.5q0 48 38 82t85 35q54 1 89.5 -31t35.5 -86z" />
    <glyph glyph-name="ntilde" unicode="&#xf1;" 
d="M365 985l-3 -2q73 160 211 160q222 0 222 -309v-838h-297v795q0 91 -56 90q-24 -1 -50.5 -28.5t-26.5 -49.5v-807h-297v1139h297v-150zM154 1200q0 93 41 158q49 77 137 78q41 0 111 -30t89 -30q36 0 41 60h125q0 -94 -39 -158q-47 -77 -135 -78q-41 0 -111 29.5
t-94 30.5q-23 0 -32.5 -17.5t-7.5 -42.5h-125z" />
    <glyph glyph-name="oacute" unicode="&#xf3;" 
d="M498 846q0 73 -68 72q-63 -2 -63 -78v-539q0 -83 65 -84q66 -1 66 90v539zM70 727q0 186 86 300q95 126 276 126q177 0 273 -115q91 -107 90 -286l-2 -361q-1 -164 -89 -281q-97 -128 -255 -128q-185 0 -284 113q-95 107 -95 294v338zM412 1448h307q17 0 20 -16
q-10 -19 -170 -110t-178 -91h-125z" />
    <glyph glyph-name="ograve" unicode="&#xf2;" 
d="M498 846q0 73 -68 72q-63 -2 -63 -78v-539q0 -83 65 -84q66 -1 66 90v539zM70 727q0 186 86 300q95 126 276 126q177 0 273 -115q91 -107 90 -286l-2 -361q-1 -164 -89 -281q-97 -128 -255 -128q-185 0 -284 113q-95 107 -95 294v338zM442 1448l148 -217h-125
q-11 0 -180 97t-172 106q14 14 20 14h309z" />
    <glyph glyph-name="ocircumflex" unicode="&#xf4;" 
d="M498 846q0 73 -68 72q-63 -2 -63 -78v-539q0 -83 65 -84q66 -1 66 90v539zM70 727q0 186 86 300q95 126 276 126q177 0 273 -115q91 -107 90 -286l-2 -361q-1 -164 -89 -281q-97 -128 -255 -128q-185 0 -284 113q-95 107 -95 294v338zM274 1448h308l120 -217h-116
l-158 115l-160 -115h-116z" />
    <glyph glyph-name="odieresis" unicode="&#xf6;" 
d="M498 846q0 73 -68 72q-63 -2 -63 -78v-539q0 -83 65 -84q66 -1 66 90v539zM70 727q0 186 86 300q95 126 276 126q177 0 273 -115q91 -107 90 -286l-2 -361q-1 -164 -89 -281q-97 -128 -255 -128q-185 0 -284 113q-95 107 -95 294v338zM344 1440v-2q59 -23 59 -101
q0 -52 -36.5 -83t-90.5 -31q-51 0 -85.5 31.5t-34.5 82.5q0 53 41 85q38 30 94 30q28 0 53 -12zM700 1337q0 -114 -122 -114q-53 0 -89 31.5t-36 82.5q0 48 37.5 82t84.5 35q54 1 89.5 -31t35.5 -86z" />
    <glyph glyph-name="otilde" unicode="&#xf5;" 
d="M498 846q0 73 -68 72q-63 -2 -63 -78v-539q0 -83 65 -84q66 -1 66 90v539zM70 727q0 186 86 300q95 126 276 126q177 0 273 -115q91 -107 90 -286l-2 -361q-1 -164 -89 -281q-97 -128 -255 -128q-185 0 -284 113q-95 107 -95 294v338zM156 1202q0 93 41 158q49 77 137 78
q41 0 111 -30t90 -30q36 0 40 60h125q0 -94 -39 -158q-47 -77 -135 -78q-41 0 -111 29.5t-93 30.5q-24 0 -33.5 -17.5t-7.5 -42.5h-125z" />
    <glyph glyph-name="uacute" unicode="&#xfa;" 
d="M365 1135v-820q0 -102 67 -102q68 0 68 102v820h297v-824q0 -157 -106 -247q-99 -84 -259 -84q-166 0 -262 81q-102 87 -102 250v824h297zM412 1448h307q17 0 20 -16q-10 -19 -170 -110t-178 -91h-125z" />
    <glyph glyph-name="ugrave" unicode="&#xf9;" 
d="M365 1135v-820q0 -102 67 -102q68 0 68 102v820h297v-824q0 -157 -106 -247q-99 -84 -259 -84q-166 0 -262 81q-102 87 -102 250v824h297zM442 1448l148 -217h-125q-11 0 -180 97t-172 106q14 14 20 14h309z" />
    <glyph glyph-name="ucircumflex" unicode="&#xfb;" 
d="M365 1135v-820q0 -102 67 -102q68 0 68 102v820h297v-824q0 -157 -106 -247q-99 -84 -259 -84q-166 0 -262 81q-102 87 -102 250v824h297zM274 1448h308l120 -217h-116l-158 115l-160 -115h-116z" />
    <glyph glyph-name="udieresis" unicode="&#xfc;" 
d="M365 1135v-820q0 -102 67 -102q68 0 68 102v820h297v-824q0 -157 -106 -247q-99 -84 -259 -84q-166 0 -262 81q-102 87 -102 250v824h297zM344 1440v-2q59 -23 59 -101q0 -52 -36.5 -83t-90.5 -31q-51 0 -85.5 31.5t-34.5 82.5q0 53 41 85q38 30 94 30q28 0 53 -12z
M700 1337q0 -114 -122 -114q-53 0 -89 31.5t-36 82.5q0 48 37.5 82t84.5 35q54 1 89.5 -31t35.5 -86z" />
    <glyph glyph-name="dagger" unicode="&#x2020;" horiz-adv-x="952" 
d="M215 1090h-2q83 0 242 -97q-7 20 -71 152q-44 91 -44 158q0 147 160 147q63 0 106.5 -41.5t44.5 -103.5q1 -52 -42 -156l-68 -154q166 90 245 90q56 0 92 -36.5t35 -92.5q-1 -133 -129 -133q-81 0 -249 95q122 -657 122 -963q0 -252 -159 -252q-164 0 -164 250
q0 213 40 484q15 102 83 478q-179 -92 -248 -92q-59 0 -94.5 37t-36.5 96q-1 61 37 97.5t100 36.5z" />
    <glyph glyph-name="degree" unicode="&#xb0;" horiz-adv-x="745" 
d="M373 1376l2 -2q121 0 208 -87.5t87 -209.5q0 -121 -87 -209t-208 -88t-209 89t-88 210q0 122 87 209.5t208 87.5zM377 940h-2q57 0 97 39.5t40 95.5q0 55 -40.5 96t-94.5 41q-57 0 -98 -39.5t-41 -95.5q-1 -56 40.5 -96.5t98.5 -40.5z" />
    <glyph glyph-name="cent" unicode="&#xa2;" 
d="M473 909l-33 9q-67 0 -67 -95v-182zM649 1372h107l-103 -282q84 -73 112 -143q26 -62 26 -177v-98h-279l2 39q-42 -105 -84 -209q-57 -148 -57 -205q0 -86 69 -86q75 0 75 148q0 23 -5 96h279v-113q0 -171 -89.5 -265.5t-259.5 -94.5q-90 0 -186 43l-115 -304h-110
l137 371q-92 124 -92 316v280q0 196 84 324q94 141 259 141q64 0 136 -23z" />
    <glyph glyph-name="sterling" unicode="&#xa3;" 
d="M178 12v-2q-54 0 -135 -30v266q51 51 51 121v274h-47v250h47q0 276 42 384q74 187 308 187q351 0 351 -411h-279v32q0 109 -63 109q-66 0 -66 -92v-207h193v-252h-193l6 -158q5 -133 -61 -217q25 5 60 2q51 -4 59 -4q55 0 71 56q6 24 6 100h285v-47q0 -391 -332 -391
q-51 0 -152 15t-151 15z" />
    <glyph glyph-name="section" unicode="&#xa7;" horiz-adv-x="739" 
d="M444 532q0 78 -29 125q-21 33 -91 91v-123q0 -91 120 -199v106zM383 1454q328 0 328 -387h-269v61q0 90 -45 91q-53 1 -53 -84q0 -74 97 -148q140 -107 179 -158q97 -127 97 -329q0 -110 -8 -153q-16 -80 -70 -134q57 -87 57 -197q0 -311 -336 -311q-311 0 -311 389h273
l-3 -63q-1 -36 8 -58q12 -31 44 -30q49 1 49 77q0 74 -97 159q-140 123 -179 180q-97 138 -97 341q0 176 78 256q-59 80 -59 199q0 135 91 219q89 80 226 80z" />
    <glyph glyph-name="bullet" unicode="&#x2022;" horiz-adv-x="934" 
d="M467 973q129 0 219 -89.5t90 -217.5q0 -125 -92 -218.5t-217 -93.5q-132 0 -219.5 89.5t-87.5 222.5q0 128 89.5 217.5t217.5 89.5z" />
    <glyph glyph-name="paragraph" unicode="&#xb6;" horiz-adv-x="1360" 
d="M1100 1446v-111h-70v-1677h-117v1677h-295v-1677h-118l2 995q-149 23 -235.5 128t-86.5 257q0 195 130 305q122 103 321 103h469z" />
    <glyph glyph-name="germandbls" unicode="&#xdf;" 
d="M801 1063q0 -172 -139 -248q141 -58 139 -256l-2 -223q-3 -348 -244 -348q-80 0 -135 47v205l24 -2q56 -5 56 116q0 11 4 67t4 93q0 180 -88 180v244q82 -2 82 117q0 75 -6 100q-13 64 -62 64q-65 0 -65 -107v-1116h-301v1110q0 161 106 255q101 88 266 89
q361 2 361 -387z" />
    <glyph glyph-name="registered" unicode="&#xae;" horiz-adv-x="1380" 
d="M1028 291h-194q-101 196 -108 206q-75 101 -198 101v-307h-159v756l358 -3q254 -1 252 -213q-1 -83 -55 -141q-51 -54 -136 -72q62 -25 137 -145q52 -91 103 -182zM528 723h119q167 0 168 100q1 99 -153 99h-134v-199zM690 -35v-2q-294 0 -499 206.5t-205 500.5
q0 292 206 501t498 209q295 0 500 -206.5t205 -501.5q0 -292 -206.5 -499.5t-498.5 -207.5zM690 1233v-2q-233 0 -397 -165t-164 -398q0 -232 165.5 -397t397.5 -165q231 0 395 165.5t164 398.5q0 231 -164.5 397t-396.5 166z" />
    <glyph glyph-name="copyright" unicode="&#xa9;" horiz-adv-x="1380" 
d="M858 799q-47 128 -164 127q-184 -2 -184 -256q0 -258 180 -256q121 1 168 157l156 -53q-72 -243 -314 -242q-171 1 -267 114q-91 106 -91 280t91 282q97 115 269 115q223 0 312 -231zM690 -35v-2q-294 0 -499 206.5t-205 500.5q0 292 206 501t498 209q295 0 500 -206.5
t205 -501.5q0 -292 -206.5 -499.5t-498.5 -207.5zM690 1233v-2q-231 0 -396 -166t-165 -397t164.5 -395t396.5 -164q235 0 397 162.5t162 398.5q0 231 -164.5 397t-394.5 166z" />
    <glyph glyph-name="trademark" unicode="&#x2122;" horiz-adv-x="1874" 
d="M424 694v623h-231v137h616v-137h-225v-623h-160zM893 694v760h244l135 -506l133 506h246v-760h-152v576l-158 -576h-141l-156 576v-576h-151z" />
    <glyph glyph-name="acute" unicode="&#xb4;" horiz-adv-x="621" 
d="M305 1448h307q18 0 21 -16q-10 -19 -170 -110t-178 -91h-127z" />
    <glyph glyph-name="dieresis" unicode="&#xa8;" horiz-adv-x="621" 
d="M238 1440v-2q59 -23 59 -101q0 -52 -36.5 -83t-90.5 -31q-52 0 -86.5 31.5t-34.5 82.5q0 53 42 85q38 30 93 30q29 0 54 -12zM594 1337q0 -114 -123 -114q-52 0 -88.5 31.5t-36.5 82.5q0 48 39 83q36 33 84 34q54 1 89.5 -31t35.5 -86z" />
    <glyph glyph-name="AE" unicode="&#xc6;" horiz-adv-x="1208" 
d="M541 1257l-99 -720h103v720h-4zM336 1436h844v-293h-299v-258h284v-291h-291v-305h310v-293h-645v291h-131l-39 -291h-334z" />
    <glyph glyph-name="Oslash" unicode="&#xd8;" horiz-adv-x="952" 
d="M414 682l155 313v70q0 100 -80 98q-33 0 -54 -27.5t-21 -62.5v-391zM569 743l-155 -305q0 -59 -2 -63q0 -109 80 -109q77 0 77 84v393zM74 975q0 477 420 477q154 0 264 -80l41 80h121l-86 -170q71 -135 71 -342v-465q0 -498 -403 -498q-168 0 -275 84l-43 -81h-123
l89 172q-76 122 -76 385v438z" />
    <glyph glyph-name="plusminus" unicode="&#xb1;" horiz-adv-x="1249" 
d="M109 891h411v414h207v-414h414v-205h-414v-416h-207v416h-411v205zM109 150h1032v-207h-1032v207z" />
    <glyph glyph-name="yen" unicode="&#xa5;" 
d="M434 819l74 617h315l-184 -650h184v-161h-225v-156h225v-160h-225v-311h-332v311h-221v160h221v156h-221v161h178l-180 650h322z" />
    <glyph glyph-name="mu" unicode="&#xb5;" horiz-adv-x="1143" 
d="M776 104h-2q-71 -129 -199 -129q-112 0 -182 129v-481h-264v1356h264v-295q0 -16 -1 -64t-1 -77q0 -355 180 -355q200 0 200 464q0 87 -7.5 203t-7.5 124h266v-983h-246v108z" />
    <glyph glyph-name="ordfeminine" unicode="&#xaa;" horiz-adv-x="522" 
d="M233 981q0 -26 13 -47v2q15 -18 30 -18q18 0 43 30v293q-22 23 -47 23q-39 0 -39 -62v-221zM45 1219q0 88 30 152q39 83 118 83q78 0 126 -115v109h185v-715h-185l-2 115q-51 -121 -131 -121q-74 0 -112 78q-29 60 -29 143v271z" />
    <glyph glyph-name="ordmasculine" unicode="&#xba;" horiz-adv-x="522" 
d="M238 918q0 -46 36 -46q41 0 41 48v348q0 40 -36 37q-41 0 -41 -45v-342zM53 1184q0 272 226 272q113 0 172 -74q54 -69 53 -184l-2 -211q-1 -110 -53 -183q-58 -81 -162 -81q-115 0 -177 77q-57 70 -57 187v197z" />
    <glyph glyph-name="ae" unicode="&#xe6;" horiz-adv-x="1208" 
d="M764 707h110v145q0 74 -53 74q-57 0 -57 -90v-129zM352 281q0 -76 54 -76q27 0 59 37v651q-28 37 -55 37q-58 0 -58 -94v-555zM1171 508h-409v-225q0 -78 55 -78q59 0 59 120q0 -2 -4 76h299v-57q0 -160 -88 -260q-93 -104 -252 -104q-210 0 -292 167q-92 -167 -238 -167
q-134 0 -196 123q-48 94 -48 243v438q0 145 47 241q61 126 191 126q103 0 207 -156v140h233v-125q63 143 168 143q127 0 203 -129q65 -109 65 -244v-272z" />
    <glyph glyph-name="oslash" unicode="&#xf8;" 
d="M365 563l135 240v39q0 28 -20.5 50.5t-47.5 22.5q-28 0 -47.5 -21.5t-19.5 -49.5v-281zM365 309q0 -92 67 -94q68 -1 68 80v285l-135 -244v-27zM68 754q0 178 95 286q100 113 275 113q116 0 215 -68l39 68h121l-80 -152q64 -109 64 -262v-374q0 -161 -91 -270
q-98 -115 -257 -115q-133 0 -240 73l-41 -73h-125l88 159q-63 100 -63 244v371z" />
    <glyph glyph-name="questiondown" unicode="&#xbf;" horiz-adv-x="641" 
d="M563 1004v-3q0 -69 -47.5 -116.5t-116.5 -46.5q-68 0 -116.5 49t-49.5 117q0 67 48.5 115t115.5 48q71 0 118.5 -46.5t47.5 -116.5zM616 -252q-115 -49 -206 -49q-159 0 -255 77q-104 84 -104 238q0 114 88 263q78 117 156 235q29 47 78 236h51q15 -56 31 -112
q16 -64 16 -114q1 -92 -60 -245.5t-61 -198.5q0 -115 135 -115q60 0 131 49v-264z" />
    <glyph glyph-name="exclamdown" unicode="&#xa1;" horiz-adv-x="465" 
d="M412 1008q0 -71 -47.5 -117t-118.5 -45q-68 1 -116 48.5t-48 113.5q0 68 47.5 117t116.5 49t117.5 -48.5t48.5 -117.5zM217 756h64q41 -199 81 -398q46 -234 46 -403q0 -96 -33 -165q-42 -89 -127 -89q-162 0 -162 254q0 172 45 403z" />
    <glyph glyph-name="logicalnot" unicode="&#xac;" horiz-adv-x="1247" 
d="M109 954h1032v-653h-205v449h-827v204z" />
    <glyph glyph-name="florin" unicode="&#x192;" horiz-adv-x="1040" 
d="M252 836l35 200h184q35 190 43 215q28 95 89 136q72 47 218 47q96 0 234 -41l-54 -215q-87 26 -147 26q-64 0 -91 -55q-12 -26 -26 -113h189l-35 -200h-186l-158 -895q-26 -149 -91 -213q-71 -70 -216 -70q-138 0 -260 39l55 207q133 -21 160 -21q56 0 80 52
q11 24 24 102l135 799h-182z" />
    <glyph glyph-name="guillemotleft" unicode="&#xab;" 
d="M197 1143h237q-7 -29 -79 -300q-70 -266 -72 -272q0 -5 70 -269q69 -260 79 -294h-244q-4 19 -77 296q-70 264 -70 267q0 27 156 572zM573 1143l244 2q-153 -538 -153 -570q0 -5 69.5 -269.5t79.5 -297.5h-244l-76 296q-68 265 -67 271q0 -22 147 568z" />
    <glyph glyph-name="guillemotright" unicode="&#xbb;" 
d="M45 1143l244 2q3 -12 77 -299q70 -269 70 -275q0 -4 -70 -269q-76 -287 -77 -294l-246 -2q152 531 152 563q0 6 -71 274q-68 262 -79 300zM428 1143l240 2q4 -17 78 -298q71 -267 71 -272q0 -29 -153 -567l-238 -2q5 20 79 298q70 266 70 269q0 5 -69 272
q-74 282 -78 298z" />
    <glyph glyph-name="ellipsis" unicode="&#x2026;" horiz-adv-x="1874" 
d="M1735 129q0 -64 -45 -108t-109 -44q-63 0 -108.5 44t-45.5 108q0 65 45 110.5t109 45.5t109 -46t45 -110zM1116 129v2q0 -63 -47 -108.5t-111 -45.5t-108.5 44t-44.5 110q0 65 44.5 110.5t108.5 45.5q65 0 111.5 -46.5t46.5 -111.5zM494 131l2 2q0 -66 -46 -109.5
t-112 -43.5q-65 0 -109.5 43.5t-44.5 109.5q0 65 44.5 110.5t107.5 45.5q66 0 112 -46t46 -112z" />
    <glyph glyph-name="nonbreakingspace" unicode="&#xa0;" horiz-adv-x="520" 
 />
    <glyph glyph-name="Agrave" unicode="&#xc0;" horiz-adv-x="915" 
d="M475 1149l-74 -748h140zM319 1434h314l274 -1438h-329l-19 188h-178l-14 -188h-334zM483 1737l146 -217l-125 2q-11 0 -180 96.5t-172 103.5q14 15 20 15h311z" />
    <glyph glyph-name="Atilde" unicode="&#xc3;" horiz-adv-x="915" 
d="M475 1149l-74 -748h140zM319 1434h314l274 -1438h-329l-19 188h-178l-14 -188h-334zM197 1493q0 92 41 157q48 76 135 76q41 0 111 -28.5t91 -28.5q39 1 39 60h125q0 -94 -39 -158q-46 -77 -133 -78q-41 0 -111 28.5t-94 28.5q-43 0 -43 -57h-122z" />
    <glyph glyph-name="Otilde" unicode="&#xd5;" horiz-adv-x="915" 
d="M549 1053h-2q0 112 -70 112q-84 0 -84 -129v-659q0 -112 78 -113t78 117v672zM55 877q0 266 75 400q99 177 345 177q212 0 316 -143q92 -126 92 -346v-426q0 -563 -410 -564q-418 0 -418 512v390zM195 1493q0 92 41 157q48 76 135 76q41 0 111 -28.5t91 -28.5q39 1 39 60
h125q0 -94 -39 -158q-46 -77 -133 -78q-41 0 -111 28.5t-94 28.5q-43 0 -43 -57h-122z" />
    <glyph glyph-name="OE" unicode="&#x152;" horiz-adv-x="1208" 
d="M539 1055q0 95 -74 96q-72 1 -72 -102v-654q0 -108 72 -108q74 0 74 110v658zM1178 1434v-293h-304v-260h291v-291h-293v-301h310v-293h-742q-225 0 -317 161q-70 124 -70 369v400q0 508 367 508h758z" />
    <glyph glyph-name="oe" unicode="&#x153;" horiz-adv-x="1208" 
d="M764 707h110v143q0 74 -55 74t-55 -74v-143zM465 848h-2q0 78 -55 78q-56 0 -56 -97v-540q0 -39 13 -64l-3 2q14 -18 46 -18q55 0 55 96zM55 375l-2 344q-2 436 363 436q108 0 194 -61q83 59 195 59q187 0 281 -125q83 -111 83 -305v-215h-411l2 -203q1 -96 57 -96
q60 0 60 113q0 22 -5 77h297l2 -51q7 -173 -91 -270.5t-275 -97.5q-98 0 -195 63q-84 -63 -198 -63q-168 0 -265 116q-91 108 -92 279z" />
    <glyph glyph-name="endash" unicode="&#x2013;" horiz-adv-x="934" 
d="M-14 557h964v-174h-964v174z" />
    <glyph glyph-name="emdash" unicode="&#x2014;" horiz-adv-x="1874" 
d="M-14 557h1904v-174h-1904v174z" />
    <glyph glyph-name="quotedblleft" unicode="&#x201c;" horiz-adv-x="952" 
d="M901 1415q-99 -71 -102 -203q100 -45 100 -145q0 -67 -39 -115q-42 -53 -106 -53q-81 0 -132 61q-47 57 -47 140q0 248 299 358zM438 1415l2 2q-89 -64 -96 -209q98 -49 98 -153q0 -68 -45 -112t-114 -44q-75 0 -125 63q-45 58 -45 136q0 139 87 229q70 71 216 129z" />
    <glyph glyph-name="quotedblright" unicode="&#x201d;" horiz-adv-x="952" 
d="M557 934h-2q91 64 100 205q-97 52 -96 151q1 68 45 115.5t111 48.5q78 1 128 -67q44 -61 44 -144q-2 -238 -305 -350zM84 938q97 54 104 201q-96 64 -96 151q0 71 41 116.5t111 45.5q78 0 130 -67q47 -60 48 -140q1 -136 -92 -226q-70 -68 -217 -126z" />
    <glyph glyph-name="quoteleft" unicode="&#x2018;" horiz-adv-x="465" 
d="M410 1415q-96 -71 -93 -203q93 -43 93 -153q0 -67 -44.5 -111.5t-111.5 -44.5q-82 0 -130 64q-44 59 -44 143q0 130 93 224q83 83 218 120z" />
    <glyph glyph-name="quoteright" unicode="&#x2019;" horiz-adv-x="465" 
d="M82 940q96 81 96 199q-95 63 -94 151q1 65 44 113.5t108 48.5q89 0 135 -65q41 -57 41 -150q0 -123 -95 -217q-84 -84 -213 -119z" />
    <glyph glyph-name="divide" unicode="&#xf7;" horiz-adv-x="1249" 
d="M627 1128q47 0 81.5 -37t34.5 -83q0 -55 -36 -88.5t-91 -32.5q-46 0 -81 38t-35 85q0 52 36.5 85t90.5 33zM623 365h2q52 0 86 -37t34 -90q0 -47 -37 -82.5t-83 -36.5q-50 -1 -86.5 35.5t-36.5 87.5q0 49 36 86t85 37zM113 719h1030v-195h-1030v195z" />
    <glyph glyph-name="ydieresis" unicode="&#xff;" horiz-adv-x="739" 
d="M729 1137l-242 -1155q-33 -159 -64 -210q-57 -91 -187 -91q-46 0 -152 26v266q81 -28 111 -28q23 0 52.5 19.5t24.5 41.5l-235 1131h278l70 -828l66 828h278zM295 1440v-2q59 -23 59 -101q0 -52 -36.5 -83t-90.5 -31q-51 0 -86 31.5t-35 82.5q0 53 42 85q38 30 94 30
q28 0 53 -12zM651 1337q0 -114 -123 -114q-52 0 -87 31q-38 32 -38 83q0 48 38 82t85 35q54 1 89.5 -31t35.5 -86z" />
    <glyph glyph-name="Ydieresis" unicode="&#x178;" 
d="M43 1434h319l72 -609l74 609l317 2q-63 -203 -125 -405q-77 -247 -102 -406q-13 -85 -13 -204q0 -72 6.5 -216t6.5 -209h-330q0 65 6.5 209t6.5 216q0 119 -13 204q-24 159 -100 405q-62 202 -125 404zM344 1729v0q59 -24 59 -101q0 -52 -36.5 -84t-90.5 -33
q-51 0 -85.5 32t-34.5 85t41 85q38 30 94 30q30 0 53 -14zM700 1628q0 -115 -122 -115q-53 0 -89 32t-36 83q0 48 37.5 81.5t84.5 33.5q54 0 89.5 -31t35.5 -84z" />
    <glyph glyph-name="currency" unicode="&#xa4;" horiz-adv-x="1247" 
d="M137 975l133 137l125 -127q112 70 246 70q66 0 104 -15v0q48 -12 107 -53l125 125l135 -137l-125 -127q67 -115 66 -248q-2 -118 -66 -207l125 -123l-135 -135l-123 123q-118 -70 -244 -70q-113 0 -215 70l-121 -123l-137 135l123 123q-67 117 -65 244q1 114 65 213z
M623 379h2q97 0 168 72t71 170t-70 169.5t-169 71.5q-100 0 -171 -70t-71 -169q0 -101 70 -172.5t170 -71.5z" />
    <glyph glyph-name="guilsinglleft" unicode="&#x2039;" horiz-adv-x="465" 
d="M203 1139h241q-4 -20 -78 -298q-71 -266 -71 -270t71 -271q76 -287 78 -296h-241q-111 442 -152 565q0 39 152 570z" />
    <glyph glyph-name="guilsinglright" unicode="&#x203a;" horiz-adv-x="465" 
d="M47 1139h244q4 -20 78 -298q71 -266 71 -270t-70 -270q-73 -281 -77 -297h-244q4 16 78 296q70 265 70 269q0 6 -71 272q-68 259 -79 298z" />
    <glyph glyph-name="daggerdbl" unicode="&#x2021;" horiz-adv-x="952" 
d="M201 1092q53 0 245 -97q-68 143 -71 152q-41 97 -41 158q0 62 44.5 105.5t106.5 43.5q66 0 110.5 -42t43.5 -107q-1 -84 -109 -310q169 95 244 95q56 0 95.5 -39t39.5 -95q0 -57 -37.5 -95t-95.5 -38q-59 0 -131 33q-60 32 -121 64q0 -61 45 -170.5t45 -169.5
q0 -64 -42 -172q-44 -115 -48 -170q120 59 122 60q73 32 132 32q56 0 92.5 -39t36.5 -96q0 -54 -39.5 -93t-93.5 -39q-53 0 -124 36q-105 53 -115 57q105 -222 104 -301q-1 -69 -42 -111.5t-110 -42.5q-65 0 -110 43t-45 109q0 89 110 301q-156 -91 -239 -91q-58 0 -97.5 39
t-39.5 97q0 53 38.5 92t92.5 39q75 0 256 -99v15q0 58 -45.5 164.5t-45.5 164.5q0 64 44 174q46 115 49 173q-162 -97 -258 -97q-57 0 -95.5 40t-38.5 96q0 52 42.5 91.5t95.5 39.5z" />
    <glyph glyph-name="periodcentered" unicode="&#x2219;" horiz-adv-x="465" 
d="M410 575v3q0 -70 -49 -118t-117 -48q-71 0 -118.5 46.5t-47.5 116.5t47.5 117.5t116.5 46.5q71 0 119.5 -47.5t48.5 -116.5z" />
    <glyph glyph-name="quotesinglbase" unicode="&#x201a;" horiz-adv-x="465" 
d="M76 -199v2q95 69 98 197q-96 63 -96 154q0 68 46 112.5t116 44.5q83 0 129 -69q41 -60 41 -148q0 -232 -310 -334z" />
    <glyph glyph-name="quotedblbase" unicode="&#x201e;" horiz-adv-x="952" 
d="M561 -203q92 61 98 203q-96 50 -96 141q0 72 43.5 122t114.5 50q84 0 130 -66q42 -59 42 -147q0 -231 -311 -348zM94 -205q102 78 105 205q-97 63 -97 154q0 70 44.5 113.5t115.5 43.5q82 0 128 -70q40 -61 40 -147q0 -219 -307 -342z" />
    <glyph glyph-name="perthousand" unicode="&#x2030;" horiz-adv-x="1657" 
d="M1444 207q0 80 -51 80q-50 0 -50 -101v-231q0 -87 52 -88q49 -1 49 72v268zM1159 182q0 276 238 275q231 -2 231 -267v-200q0 -289 -244 -289q-225 0 -225 281v200zM905 211q0 78 -49 78q-51 0 -51 -99v-237q0 -81 51 -82q49 -1 49 72v268zM621 186q0 275 237 275
q232 0 232 -266v-203q0 -287 -244 -287q-225 0 -225 281v200zM340 1214q0 81 -53 82q-49 2 -49 -100v-233q0 -88 53 -86q49 1 49 69v268zM55 1188q0 276 238 276q231 0 231 -266v-207q0 -286 -241 -286q-228 0 -228 280v203zM922 1434h188l-891 -1706h-194z" />
    <glyph glyph-name="Acircumflex" unicode="&#xc2;" horiz-adv-x="915" 
d="M475 1149l-74 -748h140zM319 1434h314l274 -1438h-329l-19 188h-178l-14 -188h-334zM313 1737h310l120 -217h-118l-158 116l-160 -116h-117z" />
    <glyph glyph-name="Ecircumflex" unicode="&#xca;" horiz-adv-x="739" 
d="M63 1434h654v-291h-318v-258h303v-291h-303v-299h322v-299h-658v1438zM225 1737h310l120 -217h-118l-158 116l-160 -116h-117z" />
    <glyph glyph-name="Aacute" unicode="&#xc1;" horiz-adv-x="915" 
d="M475 1149l-74 -748h140zM319 1434h314l274 -1438h-329l-19 188h-178l-14 -188h-334zM451 1737h309q18 0 18 -17q-10 -19 -170 -109.5t-178 -90.5h-125z" />
    <glyph glyph-name="Edieresis" unicode="&#xcb;" horiz-adv-x="739" 
d="M63 1434h654v-291h-318v-258h303v-291h-303v-299h322v-299h-658v1438zM295 1729v0q59 -24 59 -101q0 -52 -36.5 -84t-90.5 -33q-51 0 -86 32t-35 85t42 85q38 30 94 30q30 0 53 -14zM651 1628q0 -115 -123 -115q-52 0 -87 32q-38 32 -38 83q0 48 38 81.5t85 33.5
q54 0 89.5 -31t35.5 -84z" />
    <glyph glyph-name="Egrave" unicode="&#xc8;" horiz-adv-x="739" 
d="M63 1434h654v-291h-318v-258h303v-291h-303v-299h322v-299h-658v1438zM395 1737l146 -217l-125 2q-11 0 -180 96.5t-173 103.5q15 15 21 15h311z" />
    <glyph glyph-name="Iacute" unicode="&#xcd;" horiz-adv-x="465" 
d="M80 1434h332v-1438h-332v1438zM227 1737h310q18 0 18 -17q-10 -19 -170 -109.5t-178 -90.5h-125z" />
    <glyph glyph-name="Icircumflex" unicode="&#xce;" horiz-adv-x="465" 
d="M80 1434h332v-1438h-332v1438zM90 1737h309l119 -217h-117l-157 116l-160 -116h-117z" />
    <glyph glyph-name="Idieresis" unicode="&#xcf;" horiz-adv-x="465" 
d="M80 1434h332v-1438h-332v1438zM160 1729v0q59 -24 59 -101q0 -52 -36.5 -84t-90.5 -33q-52 0 -86.5 32t-34.5 85t42 85q38 30 93 30q31 0 54 -14zM516 1628q0 -115 -123 -115q-52 0 -88.5 32t-36.5 83q0 48 38 81.5t85 33.5q54 0 89.5 -31t35.5 -84z" />
    <glyph glyph-name="Igrave" unicode="&#xcc;" horiz-adv-x="465" 
d="M80 1434h332v-1438h-332v1438zM260 1737l146 -217l-125 2q-11 0 -180.5 96.5t-172.5 103.5q15 15 21 15h311z" />
    <glyph glyph-name="Oacute" unicode="&#xd3;" horiz-adv-x="915" 
d="M549 1053h-2q0 112 -70 112q-84 0 -84 -129v-659q0 -112 78 -113t78 117v672zM55 877q0 266 75 400q99 177 345 177q212 0 316 -143q92 -126 92 -346v-426q0 -563 -410 -564q-418 0 -418 512v390zM449 1737h309q18 0 18 -17q-10 -19 -170 -109.5t-178 -90.5h-125z" />
    <glyph glyph-name="Ocircumflex" unicode="&#xd4;" horiz-adv-x="915" 
d="M549 1053h-2q0 112 -70 112q-84 0 -84 -129v-659q0 -112 78 -113t78 117v672zM55 877q0 266 75 400q99 177 345 177q212 0 316 -143q92 -126 92 -346v-426q0 -563 -410 -564q-418 0 -418 512v390zM311 1737h310l120 -217h-118l-158 116l-160 -116h-117z" />
    <glyph glyph-name="Ograve" unicode="&#xd2;" horiz-adv-x="915" 
d="M549 1053h-2q0 112 -70 112q-84 0 -84 -129v-659q0 -112 78 -113t78 117v672zM55 877q0 266 75 400q99 177 345 177q212 0 316 -143q92 -126 92 -346v-426q0 -563 -410 -564q-418 0 -418 512v390zM481 1737l146 -217l-125 2q-11 0 -180 96.5t-172 103.5q14 15 20 15h311z
" />
    <glyph glyph-name="Uacute" unicode="&#xda;" horiz-adv-x="915" 
d="M59 1434h336v-1057q0 -109 72 -109q82 0 82 113v1053h336v-1022q0 -207 -108.5 -319.5t-315.5 -112.5q-187 0 -294.5 104t-107.5 291v1059zM451 1737h309q18 0 18 -17q-10 -19 -170 -109.5t-178 -90.5h-125z" />
    <glyph glyph-name="Ucircumflex" unicode="&#xdb;" horiz-adv-x="915" 
d="M59 1434h336v-1057q0 -109 72 -109q82 0 82 113v1053h336v-1022q0 -207 -108.5 -319.5t-315.5 -112.5q-187 0 -294.5 104t-107.5 291v1059zM313 1737h310l120 -217h-118l-158 116l-160 -116h-117z" />
    <glyph glyph-name="Ugrave" unicode="&#xd9;" horiz-adv-x="915" 
d="M59 1434h336v-1057q0 -109 72 -109q82 0 82 113v1053h336v-1022q0 -207 -108.5 -319.5t-315.5 -112.5q-187 0 -294.5 104t-107.5 291v1059zM483 1737l146 -217l-125 2q-11 0 -180 96.5t-172 103.5q14 15 20 15h311z" />
    <glyph glyph-name="circumflex" unicode="&#x2c6;" horiz-adv-x="621" 
d="M166 1448h309l121 -217h-119l-155 115l-160 -115h-117z" />
    <glyph glyph-name="tilde" unicode="&#x2dc;" horiz-adv-x="621" 
d="M49 1202q0 93 42 158q48 77 136 78q42 0 111.5 -30t89.5 -30q39 0 39 60h125q0 -94 -39 -158q-47 -77 -133 -78q-41 0 -111.5 29.5t-93.5 30.5q-43 1 -43 -60h-123z" />
    <glyph glyph-name="macron" unicode="&#x2c9;" horiz-adv-x="621" 
d="M10 1438h602v-207h-602v207z" />
    <glyph glyph-name="cedilla" unicode="&#xb8;" horiz-adv-x="621" 
d="M266 20q250 0 250 -139q0 -72 -72 -110q-58 -31 -137 -31q-65 0 -188 29l-2 90q37 -13 61 -11q80 0 80 58q0 36 -51 61z" />
    <glyph glyph-name="Scaron" unicode="&#x160;" 
d="M801 1010h-301l2 53q4 102 -58 102q-54 0 -55 -92q-1 -70 108 -167q172 -152 203 -190q109 -132 109 -288q0 -448 -401 -448q-207 0 -291 136q-66 107 -66 326h309l-4 -77q-5 -97 62 -97q61 0 61 109q0 103 -108 206q-101 95 -201 189q-109 131 -109 299
q0 176 99.5 279.5t275.5 103.5q163 0 266.5 -96t100.5 -256zM158 1735h114l158 -97l160 97h119l-119 -215h-314z" />
    <glyph glyph-name="scaron" unicode="&#x161;" horiz-adv-x="739" 
d="M711 768h-273v68q0 98 -61 98q-39 0 -49 -42q-4 -16 -4 -73q-1 -98 100 -136q177 -67 187 -75q102 -72 102 -254q0 -374 -334 -374q-192 0 -266 109q-59 88 -58 290h271l-4 -82q-5 -92 57 -92q57 0 57 108q0 100 -100 141q-175 71 -187 80q-102 77 -102 263
q0 356 342 356q183 0 258 -107q64 -90 64 -278zM109 1446h114l158 -98l162 98h116l-118 -215h-314z" />
    <glyph glyph-name="brokenbar" unicode="&#xa6;" horiz-adv-x="1100" 
d="M446 420h207v-676h-207v676zM446 1315h207v-680h-207v680z" />
    <glyph glyph-name="Eth" unicode="&#xd0;" horiz-adv-x="915" 
d="M393 1143v-334h72v-162h-72v-350l49 2q105 4 105 174v537q0 133 -96 133h-58zM57 1436h492q154 0 244 -96t90 -250v-668q0 -422 -373 -422h-453v647h-51v162h51v627z" />
    <glyph glyph-name="eth" unicode="&#xf0;" 
d="M504 852q0 63 -74 63q-21 0 -37 -18t-16 -39l2 -571q0 -66 59 -66q66 0 66 70v561zM436 1446q30 -15 84 -53l174 51l31 -103l-113 -36q191 -209 191 -506v-369q0 -196 -77 -312q-90 -136 -277 -136q-373 0 -369 446l2 248q4 461 237 461q83 0 154 -82q-20 111 -78 182
l-192 -59l-35 104l137 43l-53 43z" />
    <glyph glyph-name="Yacute" unicode="&#xdd;" 
d="M43 1434h319l72 -609l74 609l317 2q-63 -203 -125 -405q-77 -247 -102 -406q-13 -85 -13 -204q0 -72 6.5 -216t6.5 -209h-330q0 65 6.5 209t6.5 216q0 119 -13 204q-24 159 -100 405q-62 202 -125 404zM412 1737h307q17 0 20 -17q-10 -19 -170 -109.5t-178 -90.5h-125z
" />
    <glyph glyph-name="yacute" unicode="&#xfd;" horiz-adv-x="739" 
d="M729 1137l-242 -1155q-33 -159 -64 -210q-57 -91 -187 -91q-46 0 -152 26v266q81 -28 111 -28q23 0 52.5 19.5t24.5 41.5l-235 1131h278l70 -828l66 828h278zM362 1448h310q18 0 18 -16q-10 -19 -170 -110t-178 -91h-125z" />
    <glyph glyph-name="Thorn" unicode="&#xde;" horiz-adv-x="915" 
d="M395 963v-465h51q107 0 107 127v231q0 107 -94 107h-64zM395 1434l-2 -185q260 0 365 -70q133 -89 131 -333l-2 -238q-2 -261 -127 -344q-94 -63 -365 -63v-205h-329v1438h329z" />
    <glyph glyph-name="thorn" unicode="&#xfe;" 
d="M504 772q0 29 -18 53.5t-46 24.5q-32 0 -69 -33l-2 -479q29 -41 63 -41q72 0 72 115v360zM371 967q72 178 200 178q119 0 180 -115q50 -92 50 -221v-428q0 -143 -42 -244q-57 -139 -179 -139q-137 0 -209 205v-500h-293v1733h293v-469z" />
    <glyph glyph-name="minus" unicode="&#x2212;" horiz-adv-x="1247" 
d="M109 725h1032v-205h-1032v205z" />
    <glyph glyph-name="multiply" unicode="&#xd7;" horiz-adv-x="1247" 
d="M137 965l146 145l342 -346l344 346l145 -145l-342 -344l340 -342l-145 -146l-340 342l-342 -342l-144 146l340 342z" />
    <glyph glyph-name="onesuperior" unicode="&#xb9;" horiz-adv-x="739" 
d="M236 1401l247 57v-739h-178v547l-69 -13v148z" />
    <glyph glyph-name="twosuperior" unicode="&#xb2;" horiz-adv-x="739" 
d="M426 891h172v-164l-451 -2q80 131 160 263q111 192 111 272q0 67 -47 67q-50 0 -43 -117h-172q0 238 213 238q94 0 154 -46q67 -51 67 -142q0 -86 -58 -193z" />
    <glyph glyph-name="threesuperior" unicode="&#xb3;" horiz-adv-x="739" 
d="M322 1040v119q59 0 81 13q31 19 31 75q0 78 -57 78q-38 0 -48 -42q-3 -15 -3 -73h-172v31q0 207 229 205q225 -2 225 -201q0 -62 -26 -94q-23 -28 -82 -49q67 -18 90 -50q20 -29 20 -102q0 -232 -233 -233q-129 -1 -180 71q-43 61 -43 195h170l-5 -49q-7 -94 62 -94
q53 0 53 94q0 68 -21.5 87t-90.5 19z" />
    <glyph glyph-name="onehalf" unicode="&#xbd;" horiz-adv-x="1288" 
d="M123 1386l274 66v-829h-168v624l-106 -22v161zM1049 -121h161v-164l-424 2l158 302q107 219 107 303q0 61 -50 61q-55 0 -55 -125h-168v39q0 242 223 242q99 0 158.5 -60.5t59.5 -159.5q0 -90 -62 -225q-54 -107 -108 -215zM1047 1450h194l-995 -1745h-193z" />
    <glyph glyph-name="onequarter" unicode="&#xbc;" horiz-adv-x="1288" 
d="M125 1389l274 63v-827h-168v624l-106 -26v166zM983 297l-149 -293h149v293zM1221 4v-139h-72v-150h-168v150h-266q0 4 -2 139l270 537h172v-537h66zM1047 1450h192l-985 -1745h-197z" />
    <glyph glyph-name="threequarters" unicode="&#xbe;" horiz-adv-x="1288" 
d="M340 1217v2q0 80 -53 79q-41 0 -49 -42q-3 -15 0 -72h-170v45q0 104 65.5 165.5t171.5 61.5q205 0 203 -221q-1 -72 -19 -107q-22 -40 -83 -65q97 -28 105 -129v0q1 -16 1 -37q2 -276 -217 -276q-227 0 -227 200v105h170l-5 -68q-4 -82 54 -82q53 0 53 123q0 94 -80 94
l-2 140q82 0 82 84zM983 303l-152 -295h152v295zM985 547h166v-539h68v-139h-68v-145h-168v145h-268q0 4 -2 143zM1047 1458h192l-985 -1751h-197z" />
    <glyph glyph-name="Lslash" unicode="&#x141;" horiz-adv-x="641" 
d="M57 1436h336v-523l135 113v-141l-135 -113v-477h236v-297h-572v498l-22 -19v141l22 21v797z" />
    <glyph glyph-name="lslash" unicode="&#x142;" horiz-adv-x="465" 
d="M94 1436h297v-549l58 47v-141l-58 -50v-745h-297v502l-47 -39v143l47 39v793z" />
    <glyph glyph-name="Zcaron" unicode="&#x17d;" horiz-adv-x="641" 
d="M41 1434h584l-211 -1139h209v-299h-596l211 1147h-197v291zM59 1735h115l158 -97l162 97h116l-118 -215h-314z" />
    <glyph glyph-name="zcaron" unicode="&#x17e;" horiz-adv-x="543" 
d="M43 1135h496l-170 -904h163v-235h-501l170 909h-158v230zM12 1446h115l158 -98l161 98h117l-117 -215h-315z" />
    <glyph glyph-name="notequal" unicode="&#x2260;" horiz-adv-x="1026" 
d="M782 637h166v-129h-282l-129 -127h411v-129h-530l-223 -223l-86 88l135 135h-164v129h282l130 127h-412v129h528l223 223l89 -88z" />
    <glyph glyph-name="infinity" unicode="&#x221e;" horiz-adv-x="1335" 
d="M721 510v2q84 -173 252 -174q97 -1 157 68q57 65 56 163q-1 99 -52 162q-55 68 -151 68q-129 0 -262 -289zM614 618h-2q-97 173 -247 173q-98 0 -158 -69q-58 -65 -57 -163q0 -97 48 -159q53 -69 146 -68q93 0 170 103q38 51 100 183zM684 442q-125 -229 -295 -229
q-136 0 -220 110q-77 100 -77 240q0 141 67 241q77 115 210 116q172 1 278 -232q115 230 295 230q131 0 217 -113q78 -102 78 -238q0 -141 -66 -240q-75 -114 -208 -114q-176 0 -279 229z" />
    <glyph glyph-name="lessequal" unicode="&#x2264;" horiz-adv-x="1026" 
d="M952 31h-876v135h876v-135zM315 528l637 -198v-142l-874 277v127l874 276v-139z" />
    <glyph glyph-name="greaterequal" unicode="&#x2265;" horiz-adv-x="1026" 
d="M952 31h-876v135h876v-135zM952 465l-876 -277v142l637 198l-637 201v139l876 -276v-127z" />
    <glyph glyph-name="partialdiff" unicode="&#x2202;" horiz-adv-x="924" 
d="M479 653q-120 0 -179 -155q-42 -112 -42 -256q0 -222 154 -222q116 0 177 151q46 113 46 251q0 92 -32 153q-40 78 -124 78zM670 555h2q18 88 18 297q0 278 -115 278q-29 0 -92 -65.5t-110 -65.5q-71 2 -72 64q-1 64 68 104q58 33 129 33q173 0 258 -178q65 -136 65 -330
q0 -247 -90 -454q-116 -267 -330 -267q-142 0 -221 112q-69 98 -69 245q0 148 93 265q100 126 245 126q157 0 221 -164z" />
    <glyph glyph-name="summation" unicode="&#x2211;" horiz-adv-x="1335" 
d="M1192 965l-90 -2q-59 197 -165 272q-102 74 -310 74h-240l588 -807l-641 -740h342q200 0 294 48q118 60 183 231h92q-18 -95 -37 -189q-28 -121 -73 -182q-61 -82 -164 -82h-914l734 846l-707 971h872q124 0 175 -66q40 -50 49 -164z" />
    <glyph glyph-name="product" unicode="&#x220f;" horiz-adv-x="1540" 
d="M215 -328v1651h-164v82h1448v-82h-166v-1651h166v-84h-504v84h158v1651h-758v-1651h160v-84h-504v84h164z" />
    <glyph glyph-name="pi" unicode="&#x3c0;" horiz-adv-x="1026" 
d="M760 698q-8 -126 -8 -477q0 -155 71 -155q98 0 105 223h55v-15q0 -297 -203 -297q-206 0 -206 408q0 75 7 181q8 127 9 139l-232 6l2 -158q8 -576 -196 -576q-90 0 -120 94q-17 52 -17 167h51q0 -99 67 -99q142 0 142 514v58h-37q-139 0 -160 -101h-51q0 250 396 250
q80 0 219 -11t182 -11q95 0 104 53l51 2q0 -198 -180 -198q-24 0 -51 3z" />
    <glyph glyph-name="integral" unicode="&#x222b;" horiz-adv-x="510" 
d="M530 1430q62 0 106 -34q49 -36 48 -96q-1 -41 -27.5 -67.5t-66.5 -26.5q-50 0 -85 60.5t-52 60.5q-89 0 -103 -579q-9 -376 -10 -401q-20 -299 -89 -468q-91 -224 -269 -225q-62 0 -107 34q-49 37 -49 97q0 92 96 92q47 0 84.5 -58.5t54.5 -58.5q92 2 103 607
q8 466 37 629q78 434 329 434z" />
    <glyph glyph-name="Omega" horiz-adv-x="1438" 
d="M1112 174q89 0 125.5 36.5t36.5 125.5h51v-340h-520v346q151 30 237 153q80 114 80 275q1 189 -104 307q-110 123 -299 123q-187 0 -297 -123q-105 -117 -105 -307q0 -165 77 -275q82 -117 239 -153v-346h-518v340h51q-3 -90 34 -126t128 -36h227v105q-209 37 -332 156
q-135 131 -135 335q0 249 198 386q173 120 433 120q256 0 432 -123q201 -140 201 -385q0 -203 -136 -332q-122 -116 -331 -157v-105h227z" />
    <glyph glyph-name="radical" unicode="&#x221a;" horiz-adv-x="1026" 
d="M1118 1436h-108l-545 -1477h-66l-293 811l-114 -43l-25 82l266 92l232 -645l471 1276h182v-96z" />
    <glyph glyph-name="approxequal" unicode="&#x2248;" horiz-adv-x="1026" 
d="M23 180v156q177 110 305 110q69 0 200.5 -45t202.5 -45q99 0 275 129v-155q-162 -106 -285 -105q-72 1 -206.5 44.5t-205.5 43.5q-117 0 -286 -133zM23 406v153q179 110 303 109q69 -1 203 -44q131 -43 204 -42q101 0 273 127v-156q-159 -104 -283 -104q-71 0 -203 44
t-203 44q-107 0 -294 -131z" />
    <glyph glyph-name="Delta" unicode="&#x2206;" horiz-adv-x="1145" 
d="M176 88h690l-344 852zM1120 -4h-1087l520 1274h47z" />
    <glyph glyph-name="lozenge" unicode="&#x25ca;" horiz-adv-x="924" 
d="M463 1288l-350 -743l350 -752l348 752zM463 1530l461 -985l-461 -994l-463 994z" />
    <glyph glyph-name="fraction" unicode="&#x2215;" horiz-adv-x="0" 
d="M256 1446h164l-653 -1751h-166z" />
    <glyph glyph-name="fi" unicode="&#xf001;" 
d="M489 1331v2q0 119 173 119q65 0 109 -29q51 -34 50 -96q-1 -120 -180 -123q-63 -1 -105 30q-47 35 -47 97zM508 1137h295v-1139h-295v1139zM299 1456l147 -6v-180q-94 0 -92 -88l2 -84h90v-211h-65v-889h-297v889h-49v211h49v92q0 135 38 193q47 73 177 73z" />
    <glyph glyph-name="fl" unicode="&#xf002;" 
d="M506 1436h297v-1440h-297v1440zM313 1454v2q26 0 133 -10l3 -180q-97 0 -95 -86l2 -84h90v-213l-65 2v-889h-297v889h-49v211h49v94q0 142 41 197q49 67 188 67z" />
    <glyph glyph-name="apple" unicode="&#xf000;" horiz-adv-x="1317" 
d="M518 1434v-123h-584v123h584zM1262 1178v-131h-1328v131h1328zM1262 915v-131h-1328v131h1328zM1262 651v-131h-1328v131h1328zM1262 131v-131h-1328v131h1328zM1262 1434v-123h-584v123h584zM518 389v-123h-584v123h584zM1262 389v-123h-584v123h584z" />
    <glyph glyph-name="dotlessi" unicode="&#x131;" horiz-adv-x="465" 
d="M98 1135h297v-1139h-297v1139z" />
    <glyph glyph-name="breve" unicode="&#x2d8;" horiz-adv-x="621" 
d="M559 1505q0 -303 -242 -303q-227 0 -235 303l74 -2q21 -147 168 -145q132 1 163 147h72z" />
    <glyph glyph-name="dotaccent" unicode="&#x2d9;" horiz-adv-x="621" 
d="M444 1331h2q0 -108 -129 -108q-51 0 -85.5 31.5t-34.5 82.5q0 53 41 86q38 30 92 31q49 1 81.5 -35t32.5 -88z" />
    <glyph glyph-name="ring" unicode="&#x2da;" horiz-adv-x="621" 
d="M498 1350q0 -71 -56 -112q-50 -36 -125 -36q-69 0 -116 36q-51 38 -51 105q0 70 52 113q48 40 120 41q71 1 121 -36q55 -42 55 -111zM223 1350q0 -70 99 -70q100 0 100 70q0 69 -98 69q-101 0 -101 -69z" />
    <glyph glyph-name="hungarumlaut" unicode="&#x2dd;" horiz-adv-x="621" 
d="M37 1448h311q17 0 21 -16q-11 -19 -171.5 -110t-179.5 -91h-124zM459 1448h307q17 0 20 -16q-10 -19 -170 -110t-178 -91h-127z" />
    <glyph glyph-name="ogonek" unicode="&#x2db;" horiz-adv-x="621" 
d="M567 -369q-117 -43 -192 -43q-111 0 -174 57q-67 59 -66 169q1 80 45 217h160q-16 -72 -16 -137q0 -136 122 -136q43 0 121 25v-152z" />
    <glyph glyph-name="caron" unicode="&#x2c7;" horiz-adv-x="621" 
d="M49 1446h115l160 -98l159 98h119l-119 -215h-315z" />
    <glyph glyph-name="glyph247" horiz-adv-x="520" 
 />
    </font>
</defs>
</svg>
